<svg id="그룹_14413" data-name="그룹 14413" xmlns="http://www.w3.org/2000/svg" width="9.772" height="7.181" viewBox="0 0 9.772 7.181">
  <path id="선_77" data-name="선 77" d="M0,6.181a1,1,0,0,1-.707-.293,1,1,0,0,1,0-1.414L4.474-.707a1,1,0,0,1,1.414,0,1,1,0,0,1,0,1.414L.707,5.888A1,1,0,0,1,0,6.181Z" transform="translate(3.591 1)" fill="#bdbdbd"/>
  <path id="선_76" data-name="선 76" d="M2.591,3.591A1,1,0,0,1,1.883,3.3L-.707.707a1,1,0,0,1,0-1.414,1,1,0,0,1,1.414,0L3.3,1.883a1,1,0,0,1-.707,1.707Z" transform="translate(1 3.591)" fill="#bdbdbd"/>
</svg>
